<svg xmlns="http://www.w3.org/2000/svg" viewBox="0 0 640 400" width="640" height="400"><defs><radialGradient id="glow" cx="0.5" cy="0.45" r="0.7"><stop offset="0" stop-color="#16212d"/><stop offset="1" stop-color="#0d141c"/></radialGradient></defs><rect width="640" height="400" fill="url(#glow)"/><g opacity="0.045" transform="translate(140 10)"><circle cx="137.77" cy="171.62" r="8.55" fill="#2dd4bf"/><circle cx="172.50" cy="226.66" r="10.29" fill="#32d0c2"/><circle cx="123.65" cy="259.67" r="12.02" fill="#37ccc6"/><circle cx="69.46" cy="249.75" r="13.75" fill="#3cc7c9"/><circle cx="31.52" cy="211.99" r="15.49" fill="#41c3cc"/><circle cx="17.22" cy="161.31" r="17.22" fill="#46bfd0"/><circle cx="26.54" cy="110.05" r="18.95" fill="#4bbbd3"/><circle cx="55.44" cy="67.17" r="20.69" fill="#50b6d6"/><circle cx="97.99" cy="38.31" r="22.42" fill="#55b2da"/><circle cx="147.73" cy="26.15" r="24.15" fill="#59aedd"/><circle cx="198.51" cy="31.04" r="25.89" fill="#5eaae1"/><circle cx="245.09" cy="51.51" r="27.62" fill="#63a5e4"/><circle cx="283.34" cy="84.86" r="29.35" fill="#68a1e7"/><circle cx="310.40" cy="127.68" r="31.09" fill="#6d9deb"/><circle cx="324.61" cy="176.21" r="32.82" fill="#7299ee"/><circle cx="325.45" cy="226.69" r="34.55" fill="#7794f1"/><circle cx="313.33" cy="275.63" r="36.29" fill="#7c90f5"/><circle cx="289.46" cy="319.98" r="38.02" fill="#818cf8"/></g><circle cx="262.00" cy="190.00" r="2.20" fill="#2dd4bf"/><circle cx="281.33" cy="190.00" r="2.73" fill="#3bc8c9"/><circle cx="300.67" cy="190.00" r="3.27" fill="#49bcd2"/><circle cx="320.00" cy="190.00" r="3.80" fill="#57b0dc"/><circle cx="339.33" cy="190.00" r="4.33" fill="#65a4e5"/><circle cx="358.67" cy="190.00" r="4.87" fill="#7398ef"/><circle cx="378.00" cy="190.00" r="5.40" fill="#818cf8"/><rect x="115" y="252" width="110" height="22" rx="11" fill="#e8eef5" opacity="0.9"/><rect x="415" y="252" width="110" height="22" rx="11" fill="#e8eef5" opacity="0.9"/><path d="M390 182 l10 8 -10 8" fill="none" stroke="#818cf8" stroke-width="3" stroke-linecap="round" stroke-linejoin="round"/><text x="320" y="330" text-anchor="middle" fill="#8b98a8" font-family="Helvetica Neue, Arial, sans-serif" font-size="14">Drag Stormo to Applications to install</text></svg>
